<?xml version="1.0" encoding="UTF-8"?>
<svg width="50" height="50" version="1.1" viewBox="0 0 1200 1200" xmlns="http://www.w3.org/2000/svg">
 <g fill="#fff">
  <path d="m458.15 857.79c-4.8828 0-9.6484-1.9141-13.211-5.4453l-112.57-111.86c-4.9219-4.8945-6.75-12.102-4.7344-18.742 27.188-89.691 62.477-179.24 104.89-266.16 42.355-87.141 95.07-195.64 166.08-271.16 0.019531-0.019531 0.046875-0.039063 0.066406-0.066406 159.22-167.7 414.94-175.02 553.15-164.43 9.2734 0.71094 16.621 8.1094 17.277 17.383 9.6562 138.2 1.0977 393.46-164.7 550.39-74.598 70.82-184.67 123.12-273.11 165.15-87.367 42.086-177.49 77.137-267.76 104.15-1.7617 0.53516-3.5742 0.79688-5.3711 0.79688zm-91.324-135.93 96.602 95.98c84.824-25.988 169.43-59.211 251.67-98.832 90.609-43.059 193.21-91.809 263.49-158.54 148.46-140.51 161.45-369.75 154.11-504.29-134.61-8.168-364.19 3.7969-506.82 153.97-67.078 71.371-118.41 176.99-159.64 261.86-39.863 81.668-73.277 165.67-99.414 249.84z"/>
  <path d="m796.68 493.99c-26.758 0-53.523-10.125-73.895-30.367-19.773-19.648-30.664-45.789-30.664-73.594 0-27.805 10.895-53.945 30.664-73.594 40.762-40.492 107.05-40.48 147.8 0 19.781 19.648 30.676 45.789 30.676 73.594 0 27.797-10.895 53.934-30.664 73.586-20.383 20.258-47.148 30.375-73.914 30.375zm0-170.44c-17.195 0-34.379 6.4961-47.465 19.5-12.637 12.555-19.594 29.242-19.594 46.988 0 17.746 6.957 34.426 19.602 46.988 26.176 26.008 68.766 25.996 94.922 0h0.007813c12.637-12.555 19.602-29.25 19.602-46.988 0-17.746-6.9648-34.434-19.602-46.988-13.086-13.004-30.281-19.5-47.473-19.5z"/>
  <path d="m386.21 613.48c-0.49609 0-0.99219-0.019531-1.5078-0.054688l-187.81-14.973c-5.6797-0.44922-10.848-3.4688-14.043-8.1953-3.1953-4.7266-4.0703-10.648-2.3633-16.086 6.2695-20.055 69.598-199.17 360.01-316.15 7.3594-2.9805 15.824-0.97656 21.074 5.0156 5.2578 5.9727 6.1602 14.617 2.2695 21.555-2.3828 4.2461-6.1797 7.2383-10.492 8.6719-224.95 90.93-304.06 217.59-328.21 269.81l162.54 12.957c10.32 0.82422 18.02 9.8633 17.203 20.184-0.78125 9.8242-8.9844 17.266-18.672 17.266z"/>
  <path d="m607.53 1005c-3.7109 0-7.3789-1.0977-10.52-3.2266-4.707-3.1875-7.707-8.3438-8.1641-14.016l-15.066-186.54c-0.83594-10.32 6.8516-19.367 17.176-20.203 10.367-0.89062 19.359 6.8633 20.195 17.184l13.051 161.44c52.34-23.832 179.79-102.12 271.41-325.14 1.1523-4.1914 3.7578-8.0078 7.668-10.613 0.64844-0.42969 1.5-0.91797 2.1953-1.2656 6.9648-3.4883 15.402-2.2969 21.133 3.0195 5.7266 5.3164 7.5664 13.613 4.6133 20.84-117.76 288.58-297.99 351.48-318.16 357.7-1.8125 0.54688-3.6719 0.82812-5.5273 0.82812z"/>
  <path d="m1120.1 376.29c-4.7812 0-9.5625-1.8086-13.211-5.4453l-290.62-288.73c-7.3516-7.3047-7.3867-19.172-0.09375-26.523 7.293-7.3516 19.18-7.3789 26.512-0.085937l290.61 288.73c7.3516 7.3047 7.3867 19.172 0.09375 26.523-3.6523 3.6875-8.4805 5.5352-13.289 5.5352z"/>
  <path d="m58.164 1171.9c-4.6875 0-9.3828-1.7539-13.031-5.2695-7.4453-7.1914-7.6484-19.059-0.46094-26.512l256.74-265.82c7.2109-7.4336 19.059-7.6484 26.512-0.46094 7.4453 7.1914 7.6484 19.059 0.46094 26.512l-256.73 265.83c-3.6836 3.8086-8.5781 5.7188-13.488 5.7188z"/>
  <path d="m238.83 1183.1c-4.4336 0-8.8672-1.5664-12.441-4.7344-7.7422-6.8828-8.4375-18.73-1.5664-26.477l166.4-187.29c6.8906-7.7344 18.723-8.4375 26.465-1.5664 7.7422 6.8828 8.4375 18.73 1.5664 26.477l-166.4 187.29c-3.7109 4.1719-8.8594 6.3008-14.023 6.3008z"/>
  <path d="m46.867 1003.6c-4.4336 0-8.8672-1.5664-12.441-4.7344-7.7422-6.8828-8.4375-18.73-1.5664-26.477l166.41-187.29c6.8828-7.7344 18.723-8.4375 26.465-1.5664 7.7422 6.8828 8.4375 18.73 1.5664 26.477l-166.41 187.29c-3.7031 4.1758-8.8516 6.3008-14.023 6.3008z"/>
 </g>
</svg>
